<svg aria-hidden="true" style="position: absolute; width: 0; height: 0; overflow: hidden;" version="1.1" xmlns="http://www.w3.org/2000/svg" xmlns:xlink="http://www.w3.org/1999/xlink">
<defs>
<symbol id="icon-android" viewBox="0 0 24 24">
<path d="M15 5.016v-1.031h-0.984v1.031h0.984zM9.984 5.016v-1.031h-0.984v1.031h0.984zM15.516 2.156q2.484 1.781 2.484 4.828h-12q0-1.266 0.703-2.672t1.734-2.156l-1.313-1.313q-0.375-0.375 0-0.703t0.703 0l1.5 1.5q1.219-0.656 2.672-0.656 1.219 0 2.625 0.656l1.5-1.5q0.375-0.328 0.703 0t0 0.703zM20.484 8.016q0.609 0 1.055 0.445t0.445 1.055v6.984q0 0.656-0.445 1.078t-1.055 0.422-1.055-0.422-0.445-1.078v-6.984q0-0.609 0.445-1.055t1.055-0.445zM3.516 8.016q0.609 0 1.055 0.445t0.445 1.055v6.984q0 0.656-0.445 1.078t-1.055 0.422-1.055-0.422-0.445-1.078v-6.984q0-0.609 0.445-1.055t1.055-0.445zM6 18v-9.984h12v9.984q0 0.422-0.281 0.703t-0.703 0.281h-1.031v3.516q0 0.656-0.445 1.078t-1.055 0.422-1.055-0.422-0.445-1.078v-3.516h-1.969v3.516q0 0.656-0.445 1.078t-1.055 0.422-1.055-0.422-0.445-1.078v-3.516h-1.031q-0.422 0-0.703-0.281t-0.281-0.703z"></path>
</symbol>
<symbol id="icon-appleinc" viewBox="0 0 32 32">
<path d="M24.734 17.003c-0.040-4.053 3.305-5.996 3.454-6.093-1.88-2.751-4.808-3.127-5.851-3.171-2.492-0.252-4.862 1.467-6.127 1.467-1.261 0-3.213-1.43-5.28-1.392-2.716 0.040-5.221 1.579-6.619 4.012-2.822 4.897-0.723 12.151 2.028 16.123 1.344 1.944 2.947 4.127 5.051 4.049 2.026-0.081 2.793-1.311 5.242-1.311s3.138 1.311 5.283 1.271c2.18-0.041 3.562-1.981 4.897-3.931 1.543-2.255 2.179-4.439 2.216-4.551-0.048-0.022-4.252-1.632-4.294-6.473zM20.705 5.11c1.117-1.355 1.871-3.235 1.665-5.11-1.609 0.066-3.559 1.072-4.713 2.423-1.036 1.199-1.942 3.113-1.699 4.951 1.796 0.14 3.629-0.913 4.747-2.264z"></path>
</symbol>

<symbol id="icon-arrow-right2" viewBox="0 0 32 32">
<path d="M19.414 27.414l10-10c0.781-0.781 0.781-2.047 0-2.828l-10-10c-0.781-0.781-2.047-0.781-2.828 0s-0.781 2.047 0 2.828l6.586 6.586h-19.172c-1.105 0-2 0.895-2 2s0.895 2 2 2h19.172l-6.586 6.586c-0.39 0.39-0.586 0.902-0.586 1.414s0.195 1.024 0.586 1.414c0.781 0.781 2.047 0.781 2.828 0z"></path>
</symbol>

<symbol id="icon-star" viewBox="0 0 26 28">
<path d="M26 10.109c0 0.281-0.203 0.547-0.406 0.75l-5.672 5.531 1.344 7.812c0.016 0.109 0.016 0.203 0.016 0.313 0 0.406-0.187 0.781-0.641 0.781-0.219 0-0.438-0.078-0.625-0.187l-7.016-3.687-7.016 3.687c-0.203 0.109-0.406 0.187-0.625 0.187-0.453 0-0.656-0.375-0.656-0.781 0-0.109 0.016-0.203 0.031-0.313l1.344-7.812-5.688-5.531c-0.187-0.203-0.391-0.469-0.391-0.75 0-0.469 0.484-0.656 0.875-0.719l7.844-1.141 3.516-7.109c0.141-0.297 0.406-0.641 0.766-0.641s0.625 0.344 0.766 0.641l3.516 7.109 7.844 1.141c0.375 0.063 0.875 0.25 0.875 0.719z"></path>
</symbol>


<symbol id="icon-menu" viewBox="0 0 24 24">
<path d="M3 6h18v2.016h-18v-2.016zM3 12.984v-1.969h18v1.969h-18zM3 18v-2.016h18v2.016h-18z"></path>
</symbol>


</defs>
</svg>
